<svg width="42.205" height="42.205" viewBox="0 0 11.167 11.167" xml:space="preserve" xmlns="http://www.w3.org/2000/svg"><g style="display:inline" transform="translate(-35.473 9.735)"><circle style="display:inline;fill:none;fill-opacity:1;stroke:#0092ca;stroke-width:.401136;stroke-linecap:round;stroke-linejoin:round;stroke-dasharray:none;stroke-opacity:1;paint-order:markers fill stroke" cx="41.056" cy="-4.152" r="5.383"/><path style="display:inline;fill:#0092ca;fill-opacity:1;stroke:#0092ca;stroke-width:.0448997;stroke-opacity:1" d="M39.084-5.724v.001a.09.09 0 0 0-.05.017l-.715.483-.761.527c-.064.046-.259.185-.397.29-.063.055-.143.127-.185.236.024.065.062.19.185.274.138.104.333.243.397.289l.76.527.716.484a.091.091 0 0 0 .077.012.095.095 0 0 0 .05-.038l.176-.27c.032-.044.02-.099-.024-.133l-.7-.505-.842-.592a.542.542 0 0 1-.049-.03.509.509 0 0 1 .05-.03l.842-.593.699-.505c.044-.034.056-.088.024-.132l-.175-.27a.097.097 0 0 0-.052-.037c-.002-.001-.005-.003-.008-.003-.006-.002-.012-.002-.018-.002zm3.944 0c-.006 0-.012 0-.017.002L43-5.72h.001a.096.096 0 0 0-.051.038l-.176.27c-.032.044-.02.098.024.132l.7.506.842.592a.54.54 0 0 1 .049.03.506.506 0 0 1-.05.03l-.842.592-.699.506c-.044.033-.055.088-.024.132l.176.27c.013.02.032.032.051.037l.009.003c.022.004.046 0 .067-.015l.715-.483.762-.527c.063-.046.258-.185.396-.29.123-.083.161-.209.185-.273-.041-.11-.122-.181-.185-.237-.138-.104-.333-.243-.396-.289l-.762-.527-.715-.483a.094.094 0 0 0-.05-.016z"/><path style="display:inline;fill:#0092ca;fill-opacity:1;stroke:none;stroke-width:.0434324;stroke-opacity:1" d="M41.517-6.629c-.027 0-.046.003-.053.012-.017.02-.077.205-.132.412a236.32 236.32 0 0 1-1.16 4.16c-.066.206-.113.38-.104.387.009.007.12.037.25.067.128.03.256.052.284.05.057-.004.105-.138.254-.713.121-.464.872-3.135 1.047-3.721.066-.222.12-.432.12-.467 0-.061-.363-.184-.506-.187z"/></g></svg>