<svg width="42.205" height="42.205" viewBox="0 0 11.167 11.167" xml:space="preserve" xmlns="http://www.w3.org/2000/svg"><g style="display:inline"><g style="display:inline;stroke-width:1.57999;stroke-dasharray:none"><g transform="matrix(.54862 0 0 .54862 -33.72 -114.955)" style="display:inline;fill:#0092ca;fill-opacity:1;stroke-width:.73118;stroke-dasharray:none"><circle style="display:inline;fill:none;fill-opacity:1;stroke:#0092ca;stroke-width:1.57999;stroke-linecap:round;stroke-linejoin:round;stroke-dasharray:none;stroke-opacity:1;paint-order:markers fill stroke" cx="180.081" cy="26.23" r="21.202" transform="matrix(.46278 0 0 .46278 -11.695 207.574)"/><path style="display:inline;fill:#0092ca;fill-opacity:1;stroke-width:1.42482;stroke-dasharray:none" d="M116.097 25.234v.001a.931.931 0 0 0-.138.009c-.052-.003-.1-.009-.135-.009a.187.187 0 0 0-.05.006c-.098.504-.546 1.246-.744 1.67-.667 1.127-1.467 1.886-3.768 2.076-.578.02-1.259.055-1.965-.413-.936-.577-1.203-1.723-1.207-2.624l-.011-.625c-.175-.171-1.17.14-1.144.232-.06 1.274.206 2.824 1.293 3.745a4.003 4.003 0 0 0 2.662 1.031c1.027-.037 2.624-.129 3.87-1.216.593-.481.971-1.07 1.2-1.455.23.386.61.973 1.203 1.455 1.246 1.087 2.842 1.179 3.869 1.216a3.994 3.994 0 0 0 2.662-1.03c1.087-.922 1.354-2.472 1.293-3.746.026-.091-.969-.403-1.144-.232l-.01.625c-.004.901-.272 2.047-1.207 2.624-.707.468-1.387.433-1.966.413-2.3-.19-3.1-.949-3.768-2.076-.197-.424-.646-1.166-.743-1.67a.207.207 0 0 0-.05-.006zM107.32 14.903c-1.18-.001-2.416.553-3.224 1.195-1.157.956-1.655 2.335-1.199 3.633.286.73.88 1.189 1.632 1.425.881.163 1.779.02 2.596-.307 1.146-.452 2.344-1.299 2.786-2.397.222-.676.272-1.432.01-2.019-.285-.641-.92-1.093-1.546-1.358a3.189 3.189 0 0 0-1.055-.172zm17.275 0a3.19 3.19 0 0 0-1.055.172c-.625.265-1.26.716-1.547 1.358-.261.587-.211 1.343.01 2.019.442 1.098 1.64 1.945 2.786 2.397.817.327 1.715.47 2.597.307.752-.236 1.346-.696 1.631-1.425.456-1.298-.041-2.677-1.199-3.633-.808-.642-2.043-1.197-3.223-1.195zM114.752 22.163c.006.485.23.87.577 1.244.217.205.356.289.571.32v.012c.02-.002.039-.002.057-.006l.057.006v-.011c.216-.032.355-.117.571-.321.347-.374.571-.76.577-1.244-.48-.276-1.986-.371-2.41 0z" transform="matrix(.51317 0 0 .51317 12.136 208.595)"/><path style="display:inline;fill:#fff;fill-opacity:1;stroke-width:1.42482;stroke-dasharray:none" d="M124.444 15.637a1.365 1.365 0 0 0-.334.06v-.002a.925.925 0 0 0-.575.52c-.11.463.338.601.665.541.226-.05.478-.14.668-.317.135-.125.261-.313.226-.475-.037-.138-.162-.24-.33-.288a1.033 1.033 0 0 0-.32-.04zm-18.298.28a1.339 1.339 0 0 0-.355.059.924.924 0 0 0-.575.519c-.11.463.339.601.666.541.226-.05.478-.14.668-.316.135-.125.26-.314.225-.476-.036-.138-.16-.24-.329-.288-.102-.029-.2-.041-.3-.04z" transform="matrix(.51317 0 0 .51317 12.136 208.595)"/></g></g></g></svg>