<svg width="42.205" height="42.205" viewBox="0 0 11.167 11.167" xml:space="preserve" xmlns="http://www.w3.org/2000/svg"><g style="display:inline"><g transform="matrix(.25389 0 0 .25389 -18.126 -7.788)" style="display:inline;stroke-width:1.57999;stroke-dasharray:none"><circle style="display:inline;fill:none;fill-opacity:1;stroke:#0092ca;stroke-width:1.57999;stroke-linecap:round;stroke-linejoin:round;stroke-dasharray:none;stroke-opacity:1;paint-order:markers fill stroke" cx="93.384" cy="52.667" r="21.202"/><path style="fill:#0092ca;fill-opacity:1;stroke-width:1.57999;stroke-dasharray:none" d="M85.77 59.364c-2.657-.392-4.742-2.22-5.486-4.811-.255-.89-.256-2.338 0-3.271.54-1.978 2.061-3.603 4.123-4.405 1.107-.43 1.411-.464 4.2-.464 2.467 0 2.581.007 2.803.17.587.429.757 1.012.46 1.582-.32.614-.379.626-3.319.68-2.323.041-2.648.064-3.076.213-2.466.861-3.584 3.39-2.482 5.618.526 1.062 1.77 2.011 2.909 2.22.248.045 1.504.082 2.79.082 2.178 0 2.361.012 2.67.166.433.217.704.715.64 1.177-.049.362-.238.654-.591.913-.22.162-.348.17-2.719.182-1.368.007-2.683-.017-2.922-.052zm9.78-.007c-.467-.192-.839-.7-.839-1.145 0-.408.297-.882.669-1.068.308-.154.49-.166 2.67-.166 1.285 0 2.541-.037 2.79-.082.731-.134 1.479-.543 2.092-1.144 2.217-2.175 1.354-5.64-1.666-6.694-.428-.149-.753-.172-3.076-.213-2.927-.053-3.001-.068-3.31-.662-.309-.594-.15-1.166.445-1.598.229-.165.33-.172 2.808-.172 1.859 0 2.71.031 3.074.112 3.355.743 5.65 3.564 5.458 6.712-.171 2.808-2.028 5.109-4.788 5.93-.743.22-.792.224-3.436.25-1.735.016-2.756-.005-2.891-.06zm-6.788-5.318c-.433-.214-.672-.615-.672-1.13 0-.516.239-.917.672-1.13.267-.132.666-.145 4.608-.145 4.812 0 4.695-.013 5.09.567.411.604.172 1.516-.482 1.838-.266.131-.665.144-4.608.144-3.942 0-4.341-.013-4.608-.144z"/></g></g></svg>