<svg width="42.205" height="42.205" viewBox="0 0 11.167 11.167" xml:space="preserve" xmlns="http://www.w3.org/2000/svg"><g style="display:inline"><g transform="matrix(.25389 0 0 .25389 -18.065 -4.608)" style="display:inline;stroke-width:1.57999;stroke-dasharray:none"><circle style="display:inline;fill:none;fill-opacity:1;stroke:#0092ca;stroke-width:1.57999;stroke-linecap:round;stroke-linejoin:round;stroke-dasharray:none;stroke-opacity:1;paint-order:markers fill stroke" cx="93.145" cy="40.141" r="21.202"/><path style="display:inline;fill:#0092ca;fill-opacity:1;stroke:none;stroke-width:1.57999;stroke-dasharray:none;stroke-opacity:1" d="M88.996 31.154a2.09 2.09 0 0 0-.736.107c-.35.132-.697.453-.874.813l-.129.262-.014 7.673c-.015 8.474-.033 7.99.317 8.444.232.3.534.504.88.596.16.042.337.078.395.08.33.008.745-.17 1.76-.756 1.364-.786 4.892-2.824 7.518-4.342a737.984 737.984 0 0 1 2.576-1.484c1.965-1.118 2.15-1.251 2.386-1.708.295-.573.165-1.374-.3-1.853-.103-.105-1.108-.72-2.355-1.441-1.196-.692-2.447-1.415-2.78-1.609-.332-.193-1.397-.808-2.365-1.366-.97-.559-2.649-1.528-3.733-2.155-1.084-.627-2.052-1.167-2.15-1.2a1.381 1.381 0 0 0-.396-.06z"/></g></g></svg>