<?xml version="1.0" encoding="UTF-8" standalone="no"?>
<!-- Created with Inkscape (http://www.inkscape.org/) -->

<svg
   width="33.595512mm"
   height="10.550369mm"
   viewBox="0 0 33.595512 10.550369"
   version="1.1"
   id="svg492"
   inkscape:export-filename="imagem bitmap.svg"
   inkscape:export-xdpi="96"
   inkscape:export-ydpi="96"
   xmlns:inkscape="http://www.inkscape.org/namespaces/inkscape"
   xmlns:sodipodi="http://sodipodi.sourceforge.net/DTD/sodipodi-0.dtd"
   xmlns="http://www.w3.org/2000/svg"
   xmlns:svg="http://www.w3.org/2000/svg">
  <sodipodi:namedview
     id="namedview494"
     pagecolor="#ffffff"
     bordercolor="#000000"
     borderopacity="0.25"
     inkscape:showpageshadow="2"
     inkscape:pageopacity="0.0"
     inkscape:pagecheckerboard="0"
     inkscape:deskcolor="#d1d1d1"
     inkscape:document-units="mm"
     showgrid="false" />
  <defs
     id="defs489" />
  <g
     inkscape:label="Camada 1"
     inkscape:groupmode="layer"
     id="layer1"
     transform="translate(-119.81515,-160.07966)">
    <g
       id="g1680-5-4-4-3-3-4-9-7"
       transform="matrix(1.0303202,0,0,1.0303202,-6.2553356,76.646785)"
       style="display:inline;fill:#222831;fill-opacity:1">
      <path
         id="path602-8-6-3-5-7-4-6-2-0"
         style="font-size:44.8028px;display:inline;fill:#222831;fill-opacity:1;stroke-width:0.757176;stroke-linecap:round;stroke-linejoin:round;paint-order:markers stroke fill"
         d="m 151.69292,84.481919 c -1.81128,0 -3.2656,1.513437 -3.2656,3.367794 0,1.86799 1.45432,3.367799 3.2656,3.367799 0.68748,0 1.53359,-0.395416 1.89056,-0.899907 0.0265,-0.02724 0.0662,-0.01362 0.0662,0.02724 l 0.0132,0.599938 c 0.0132,0.149988 0.1323,0.272713 0.26451,0.272713 h 0.70075 c 0.15865,0 0.27752,-0.122725 0.27752,-0.272713 0,0 0.11904,-1.472589 0.0264,-3.258775 -0.0793,-1.786179 -1.49394,-3.204104 -3.2391,-3.204104 z m -0.0268,1.361085 c 1.17371,-0.0087 2.10496,1.038653 1.94383,2.2658 -0.10577,0.8999 -0.8065,1.622591 -1.66586,1.731673 -1.26921,0.163617 -2.3402,-0.940892 -2.18155,-2.249849 0.10577,-0.899907 0.8065,-1.608957 1.66586,-1.731674 0.0802,-0.01023 0.15946,-0.01535 0.23772,-0.01593 z" />
      <path
         id="path600-8-2-2-6-8-0-0-4-7"
         style="font-size:44.8028px;display:inline;fill:#222831;fill-opacity:1;stroke-width:0.757176;stroke-linecap:round;stroke-linejoin:round;paint-order:markers stroke fill"
         d="m 139.04048,84.481919 c -1.81128,0 -3.26559,1.513437 -3.26559,3.367794 0,1.86799 1.45431,3.367799 3.26559,3.367799 0.68749,0 1.5336,-0.395416 1.89056,-0.899907 0.0264,-0.02724 0.0662,-0.01362 0.0662,0.02724 l 0.0132,0.599938 c 0.0132,0.149988 0.1323,0.272713 0.26451,0.272713 h 0.70059 c 0.15865,0 0.27767,-0.122725 0.27767,-0.272713 0,0 0.11904,-1.472589 0.0265,-3.258775 -0.0793,-1.786179 -1.49394,-3.204104 -3.23911,-3.204104 z m -0.0268,1.361085 c 1.17371,-0.0087 2.10497,1.038653 1.94384,2.2658 -0.10577,0.8999 -0.80649,1.622591 -1.66586,1.731673 -1.26922,0.163617 -2.34021,-0.940892 -2.18155,-2.249849 0.10577,-0.899907 0.8065,-1.608957 1.66586,-1.731674 0.0802,-0.01023 0.15946,-0.01535 0.23771,-0.01593 z" />
      <path
         style="font-size:44.8028px;display:inline;fill:#222831;fill-opacity:1;stroke-width:0.757176;stroke-linecap:round;stroke-linejoin:round;paint-order:markers stroke fill"
         d="m 144.91055,80.977605 c -0.13221,0 -0.23803,0.09548 -0.23803,0.23183 l -0.0396,2.181544 v 1.158992 l -1.3089,0.04093 c -0.13221,0.01362 -0.22471,0.109103 -0.22471,0.245456 v 0.818139 c 0,0.122717 0.0925,0.218042 0.22471,0.231677 l 1.3089,0.04108 v 2.863258 l 0.0396,2.195331 c 0,0.12271 0.10582,0.23167 0.23803,0.23167 h 0.76673 c 0.11898,0 0.22486,-0.10896 0.22486,-0.23167 l 0.0528,-2.195331 v -2.863254 l 1.3089,-0.04108 c 0.11899,-0.01362 0.2247,-0.108952 0.2247,-0.245305 v -0.804511 c 0,-0.136353 -0.10571,-0.231821 -0.2247,-0.245456 l -1.3089,-0.04093 v -1.158992 l -0.0528,-2.181544 c 0,-0.136346 -0.10588,-0.231829 -0.22486,-0.231829 z"
         id="path556-8-6-8-0-0-8-2-8-9" />
      <path
         style="font-size:44.8028px;display:inline;fill:#222831;fill-opacity:1;stroke-width:0.760504;stroke-linecap:round;stroke-linejoin:round;paint-order:markers stroke fill"
         d="m 133.75347,83.313579 v 9.31e-4 c -0.0419,4.16e-4 -0.0839,0.01395 -0.12219,0.04053 l -1.72493,1.215259 -1.83728,1.324932 c -0.15413,0.115849 -0.62326,0.463832 -0.95641,0.726295 -0.15247,0.140895 -0.34744,0.320575 -0.44764,0.595052 0.0585,0.162803 0.15064,0.4789 0.44764,0.689416 0.33315,0.262463 0.80229,0.610487 0.95641,0.726295 l 1.83728,1.324023 1.72493,1.216188 c 0.0513,0.03568 0.10892,0.04765 0.1636,0.03688 0.007,-0.0017 0.0138,-0.0033 0.0206,-0.0055 l -0.001,-0.0011 c 0.047,-0.01395 0.0905,-0.04629 0.12413,-0.09445 l 0.42336,-0.678655 c 0.0763,-0.109934 0.0485,-0.248124 -0.0585,-0.332573 l -1.68715,-1.270103 -2.03323,-1.488522 c -0.0477,-0.02769 -0.0863,-0.05203 -0.11777,-0.07549 0.0314,-0.02364 0.0699,-0.04853 0.11777,-0.07637 l 2.03323,-1.488523 1.68715,-1.27101 c 0.10699,-0.08454 0.13478,-0.221652 0.0585,-0.33167 l -0.42336,-0.678651 c -0.0333,-0.04819 -0.077,-0.08019 -0.12413,-0.09445 l 0.001,-9.3e-4 c -0.007,-0.0018 -0.0138,-0.0035 -0.0206,-0.0053 -0.0138,-0.0035 -0.0274,-0.0035 -0.0413,-0.0035 z"
         id="path1649-57-6-4-3-8-9-4-0" />
      <path
         style="font-size:44.8028px;display:inline;fill:#222831;fill-opacity:1;stroke-width:0.760504;stroke-linecap:round;stroke-linejoin:round;paint-order:markers stroke fill"
         d="m 123.01225,83.313579 v 9.31e-4 c 0.0419,4.16e-4 0.0839,0.01395 0.12219,0.04053 l 1.72493,1.215259 1.83728,1.324932 c 0.15413,0.115849 0.62326,0.463832 0.95641,0.726295 0.15247,0.140895 0.34744,0.320575 0.44764,0.595052 -0.0585,0.162803 -0.15064,0.4789 -0.44764,0.689416 -0.33315,0.262463 -0.80229,0.610487 -0.95641,0.726295 l -1.83728,1.324023 -1.72493,1.216188 c -0.0513,0.03568 -0.10892,0.04765 -0.1636,0.03688 -0.007,-0.0017 -0.0138,-0.0033 -0.0206,-0.0055 l 0.001,-0.0011 c -0.047,-0.01395 -0.0905,-0.04629 -0.12413,-0.09445 l -0.42336,-0.678655 c -0.0763,-0.109934 -0.0485,-0.248124 0.0585,-0.332573 l 1.68715,-1.270103 2.03323,-1.488522 c 0.0477,-0.02769 0.0863,-0.05203 0.11777,-0.07549 -0.0314,-0.02364 -0.0699,-0.04853 -0.11777,-0.07637 l -2.03323,-1.488523 -1.68715,-1.27101 c -0.10699,-0.08454 -0.13478,-0.221652 -0.0585,-0.33167 l 0.42336,-0.678651 c 0.0333,-0.04819 0.077,-0.08019 0.12413,-0.09445 l -0.001,-9.3e-4 c 0.007,-0.0018 0.0138,-0.0035 0.0206,-0.0053 0.0138,-0.0035 0.0274,-0.0035 0.0413,-0.0035 z"
         id="path1649-5-2-6-2-14-5-2-4-5" />
    </g>
  </g>
</svg>
