<?xml version="1.0" encoding="UTF-8" standalone="no"?>
<!-- Created with Inkscape (http://www.inkscape.org/) -->

<svg
   width="44.329388mm"
   height="55.785866mm"
   viewBox="0 0 44.329388 55.785866"
   version="1.1"
   id="svg721"
   inkscape:export-filename="logo.svg"
   inkscape:export-xdpi="96"
   inkscape:export-ydpi="96"
   xmlns:inkscape="http://www.inkscape.org/namespaces/inkscape"
   xmlns:sodipodi="http://sodipodi.sourceforge.net/DTD/sodipodi-0.dtd"
   xmlns="http://www.w3.org/2000/svg"
   xmlns:svg="http://www.w3.org/2000/svg">
  <sodipodi:namedview
     id="namedview723"
     pagecolor="#ffffff"
     bordercolor="#000000"
     borderopacity="0.25"
     inkscape:showpageshadow="2"
     inkscape:pageopacity="0.0"
     inkscape:pagecheckerboard="0"
     inkscape:deskcolor="#d1d1d1"
     inkscape:document-units="mm"
     showgrid="false" />
  <defs
     id="defs718" />
  <g
     inkscape:label="Camada 1"
     inkscape:groupmode="layer"
     id="layer1"
     transform="translate(-57.122503,-83.134237)">
    <g
       id="g1068">
      <g
         id="g13367-2-1"
         transform="translate(-62.529467,-53.808248)"
         style="display:inline"
         inkscape:label="FINAL">
        <circle
           style="display:inline;fill:#0092ca;fill-opacity:1;stroke:none;stroke-width:2.96211;stroke-linecap:butt;stroke-linejoin:round;stroke-dasharray:none;stroke-opacity:1;paint-order:stroke markers fill"
           id="path11200-2-6-2"
           cx="141.81667"
           cy="159.10718"
           r="22.164696" />
        <path
           id="path430-9-7-5-8-6-6-8-5-9-78-4"
           style="display:inline;fill:#ffffff;fill-opacity:1;stroke:none;stroke-width:2.1995;stroke-linecap:round;stroke-linejoin:round;stroke-dasharray:none;stroke-opacity:1;paint-order:stroke markers fill"
           d="m 153.21182,143.62381 c -0.83338,0.0258 -1.85844,0.16273 -2.75934,0.75245 -1.03932,0.68069 -1.77452,1.9555 -2.19237,2.74431 -0.27584,-0.43751 -0.64313,-0.93198 -1.10487,-1.39825 -0.92798,-0.88611 -1.93234,-1.47118 -3.10891,-1.76356 -1.15907,-0.20751 -1.84636,-0.2998 -2.92509,-0.0377 -0.5279,0.13258 -0.90572,0.3978 -1.19555,0.77322 0.002,0.81471 0.58276,1.81639 1.214,2.43307 1.66546,1.46923 3.47588,2.25123 5.60379,2.22399 -0.52965,0.45228 -0.50912,1.92685 -0.52744,2.28445 -0.0402,0.78488 -0.12231,1.38388 -0.94701,1.95758 -0.5385,0.37461 -1.58618,0.16266 -2.29832,-0.0256 -1.22226,-0.41181 -2.58685,-0.54789 -4.18595,-0.6261 -2.65235,0 -4.4857,0.3392 -6.46731,1.72389 -2.81865,1.96961 -4.62652,5.08334 -4.62653,8.5895 0.004,2.68057 1.04346,5.56869 2.92134,7.56677 -0.0717,-0.006 -0.1438,-0.01 -0.21594,-0.01 -1.0991,-10e-6 -2.05984,0.70784 -2.05981,1.64355 -3e-5,0.93573 1.02795,1.58364 2.12705,1.58362 1.0991,2e-5 1.92289,-0.40702 1.92286,-1.34274 -3e-5,-0.0517 0.0106,-0.19937 0.005,-0.25083 1.09573,0.76737 2.20065,1.30487 3.38668,1.63098 2.03702,0.56743 5.46458,0.51395 8.34937,-0.18422 -0.0404,-0.0451 -0.35767,-0.2383 -0.54739,-0.82517 0.0138,-0.0584 0.15355,-0.13008 0.22025,-0.13579 0.0644,0.15634 0.14466,0.33991 0.23395,0.4762 0.10732,0.16229 0.23895,0.30575 0.37731,0.41246 0.42697,0.32334 1.02955,0.46041 1.67378,0.432 1.09903,2e-5 2.06172,-0.72259 2.07973,-1.45208 -2.8e-4,-0.55488 -0.16817,-1.27722 -1.81513,-2.04185 -0.002,-0.0598 0.1574,-0.22503 0.16248,-0.22584 0.72886,0.30067 1.41342,0.82031 1.67446,1.23494 0,0 0.26629,-0.11335 0.66006,-0.41773 3.37907,-2.35521 5.01379,-5.96922 5.33619,-9.75478 0.22748,-2.92825 -0.37534,-5.85431 -1.59878,-8.72453 -0.63883,-1.4906 -1.76533,-3.11585 -2.6013,-3.91513 0.78218,-0.15711 1.84399,-0.63663 2.68382,-1.18614 1.88219,-1.23203 2.62414,-2.8832 2.51514,-3.70365 -0.57699,-0.55104 -1.39168,-0.42651 -1.97026,-0.44112 z"
           sodipodi:nodetypes="cccccccccssccscccccccccccccccccccccccccc" />
        <g
           id="g1680-5-4-4-3-3-4-9-7-6-3"
           transform="matrix(1.0303202,0,0,1.0303202,-0.52240445,98.745108)"
           style="display:inline;fill:#222831;fill-opacity:1">
          <path
             id="path602-8-6-3-5-7-4-6-2-0-1-4"
             style="font-size:44.8028px;display:inline;fill:#0092ca;fill-opacity:1;stroke-width:0.757176;stroke-linecap:round;stroke-linejoin:round;paint-order:markers stroke fill"
             d="m 151.69292,84.481919 c -1.81128,0 -3.2656,1.513437 -3.2656,3.367794 0,1.86799 1.45432,3.367799 3.2656,3.367799 0.68748,0 1.53359,-0.395416 1.89056,-0.899907 0.0265,-0.02724 0.0662,-0.01362 0.0662,0.02724 l 0.0132,0.599938 c 0.0132,0.149988 0.1323,0.272713 0.26451,0.272713 h 0.70075 c 0.15865,0 0.27752,-0.122725 0.27752,-0.272713 0,0 0.11904,-1.472589 0.0264,-3.258775 -0.0793,-1.786179 -1.49394,-3.204104 -3.2391,-3.204104 z m -0.0268,1.361085 c 1.17371,-0.0087 2.10496,1.038653 1.94383,2.2658 -0.10577,0.8999 -0.8065,1.622591 -1.66586,1.731673 -1.26921,0.163617 -2.3402,-0.940892 -2.18155,-2.249849 0.10577,-0.899907 0.8065,-1.608957 1.66586,-1.731674 0.0802,-0.01023 0.15946,-0.01535 0.23772,-0.01593 z" />
          <path
             id="path600-8-2-2-6-8-0-0-4-7-3-9"
             style="font-size:44.8028px;display:inline;fill:#0092ca;fill-opacity:1;stroke-width:0.757176;stroke-linecap:round;stroke-linejoin:round;paint-order:markers stroke fill"
             d="m 139.04048,84.481919 c -1.81128,0 -3.26559,1.513437 -3.26559,3.367794 0,1.86799 1.45431,3.367799 3.26559,3.367799 0.68749,0 1.5336,-0.395416 1.89056,-0.899907 0.0264,-0.02724 0.0662,-0.01362 0.0662,0.02724 l 0.0132,0.599938 c 0.0132,0.149988 0.1323,0.272713 0.26451,0.272713 h 0.70059 c 0.15865,0 0.27767,-0.122725 0.27767,-0.272713 0,0 0.11904,-1.472589 0.0265,-3.258775 -0.0793,-1.786179 -1.49394,-3.204104 -3.23911,-3.204104 z m -0.0268,1.361085 c 1.17371,-0.0087 2.10497,1.038653 1.94384,2.2658 -0.10577,0.8999 -0.80649,1.622591 -1.66586,1.731673 -1.26922,0.163617 -2.34021,-0.940892 -2.18155,-2.249849 0.10577,-0.899907 0.8065,-1.608957 1.66586,-1.731674 0.0802,-0.01023 0.15946,-0.01535 0.23771,-0.01593 z" />
          <path
             style="font-size:44.8028px;display:inline;fill:#0092ca;fill-opacity:1;stroke-width:0.757176;stroke-linecap:round;stroke-linejoin:round;paint-order:markers stroke fill"
             d="m 144.91055,80.977605 c -0.13221,0 -0.23803,0.09548 -0.23803,0.23183 l -0.0396,2.181544 v 1.158992 l -1.3089,0.04093 c -0.13221,0.01362 -0.22471,0.109103 -0.22471,0.245456 v 0.818139 c 0,0.122717 0.0925,0.218042 0.22471,0.231677 l 1.3089,0.04108 v 2.863258 l 0.0396,2.195331 c 0,0.12271 0.10582,0.23167 0.23803,0.23167 h 0.76673 c 0.11898,0 0.22486,-0.10896 0.22486,-0.23167 l 0.0528,-2.195331 v -2.863254 l 1.3089,-0.04108 c 0.11899,-0.01362 0.2247,-0.108952 0.2247,-0.245305 v -0.804511 c 0,-0.136353 -0.10571,-0.231821 -0.2247,-0.245456 l -1.3089,-0.04093 v -1.158992 l -0.0528,-2.181544 c 0,-0.136346 -0.10588,-0.231829 -0.22486,-0.231829 z"
             id="path556-8-6-8-0-0-8-2-8-9-0-5" />
          <path
             style="font-size:44.8028px;display:inline;fill:#0092ca;fill-opacity:1;stroke-width:0.760504;stroke-linecap:round;stroke-linejoin:round;paint-order:markers stroke fill"
             d="m 133.75347,83.313579 v 9.31e-4 c -0.0419,4.16e-4 -0.0839,0.01395 -0.12219,0.04053 l -1.72493,1.215259 -1.83728,1.324932 c -0.15413,0.115849 -0.62326,0.463832 -0.95641,0.726295 -0.15247,0.140895 -0.34744,0.320575 -0.44764,0.595052 0.0585,0.162803 0.15064,0.4789 0.44764,0.689416 0.33315,0.262463 0.80229,0.610487 0.95641,0.726295 l 1.83728,1.324023 1.72493,1.216188 c 0.0513,0.03568 0.10892,0.04765 0.1636,0.03688 0.007,-0.0017 0.0138,-0.0033 0.0206,-0.0055 l -0.001,-0.0011 c 0.047,-0.01395 0.0905,-0.04629 0.12413,-0.09445 l 0.42336,-0.678655 c 0.0763,-0.109934 0.0485,-0.248124 -0.0585,-0.332573 l -1.68715,-1.270103 -2.03323,-1.488522 c -0.0477,-0.02769 -0.0863,-0.05203 -0.11777,-0.07549 0.0314,-0.02364 0.0699,-0.04853 0.11777,-0.07637 l 2.03323,-1.488523 1.68715,-1.27101 c 0.10699,-0.08454 0.13478,-0.221652 0.0585,-0.33167 l -0.42336,-0.678651 c -0.0333,-0.04819 -0.077,-0.08019 -0.12413,-0.09445 l 0.001,-9.3e-4 c -0.007,-0.0018 -0.0138,-0.0035 -0.0206,-0.0053 -0.0138,-0.0035 -0.0274,-0.0035 -0.0413,-0.0035 z"
             id="path1649-57-6-4-3-8-9-4-0-9-2" />
          <path
             style="font-size:44.8028px;display:inline;fill:#0092ca;fill-opacity:1;stroke-width:0.760504;stroke-linecap:round;stroke-linejoin:round;paint-order:markers stroke fill"
             d="m 123.01225,83.313579 v 9.31e-4 c 0.0419,4.16e-4 0.0839,0.01395 0.12219,0.04053 l 1.72493,1.215259 1.83728,1.324932 c 0.15413,0.115849 0.62326,0.463832 0.95641,0.726295 0.15247,0.140895 0.34744,0.320575 0.44764,0.595052 -0.0585,0.162803 -0.15064,0.4789 -0.44764,0.689416 -0.33315,0.262463 -0.80229,0.610487 -0.95641,0.726295 l -1.83728,1.324023 -1.72493,1.216188 c -0.0513,0.03568 -0.10892,0.04765 -0.1636,0.03688 -0.007,-0.0017 -0.0138,-0.0033 -0.0206,-0.0055 l 0.001,-0.0011 c -0.047,-0.01395 -0.0905,-0.04629 -0.12413,-0.09445 l -0.42336,-0.678655 c -0.0763,-0.109934 -0.0485,-0.248124 0.0585,-0.332573 l 1.68715,-1.270103 2.03323,-1.488522 c 0.0477,-0.02769 0.0863,-0.05203 0.11777,-0.07549 -0.0314,-0.02364 -0.0699,-0.04853 -0.11777,-0.07637 l -2.03323,-1.488523 -1.68715,-1.27101 c -0.10699,-0.08454 -0.13478,-0.221652 -0.0585,-0.33167 l 0.42336,-0.678651 c 0.0333,-0.04819 0.077,-0.08019 0.12413,-0.09445 l -0.001,-9.3e-4 c 0.007,-0.0018 0.0138,-0.0035 0.0206,-0.0053 0.0138,-0.0035 0.0274,-0.0035 0.0413,-0.0035 z"
             id="path1649-5-2-6-2-14-5-2-4-5-3-2" />
        </g>
        <path
           id="path4348-9-3-1-1-4-8-0"
           style="display:none;fill:#222831;fill-opacity:1;stroke-width:0.0362708"
           d="m 137.48483,163.18943 v 3.5e-4 c -0.0127,-5e-4 -0.0298,6.9e-4 -0.0487,0.003 -0.0182,-9.3e-4 -0.0353,-0.003 -0.0477,-0.003 -0.007,1.1e-4 -0.0135,6.9e-4 -0.0177,0.002 -0.0343,0.17783 -0.19254,0.43967 -0.26213,0.58927 -0.23544,0.39741 -0.51772,0.66516 -1.32914,0.73206 -0.20413,0.007 -0.44417,0.0194 -0.69334,-0.14563 -0.32984,-0.20345 -0.4241,-0.60769 -0.42553,-0.92564 l -0.004,-0.22022 c -0.0617,-0.0605 -0.41242,0.0495 -0.4035,0.0817 -0.0214,0.44922 0.0727,0.99592 0.45607,1.32096 0.28175,0.25648 0.62619,0.36016 0.93914,0.36373 0.36223,-0.0132 0.92526,-0.0455 1.36466,-0.42908 0.20934,-0.16972 0.34274,-0.37708 0.42374,-0.51325 0.081,0.13617 0.21469,0.34346 0.42411,0.51325 0.4394,0.38358 1.00243,0.41588 1.36466,0.42908 0.31296,-0.004 0.65739,-0.10725 0.93914,-0.36373 0.3834,-0.32504 0.47745,-0.87174 0.45607,-1.32096 0.01,-0.0322 -0.34178,-0.14218 -0.40351,-0.0817 l -0.003,0.22022 c -9.3e-4,0.31795 -0.0957,0.72219 -0.42552,0.92564 -0.24916,0.16508 -0.48921,0.15278 -0.69333,0.14563 -0.81143,-0.0668 -1.09371,-0.33465 -1.32915,-0.73206 -0.0696,-0.1496 -0.22787,-0.41144 -0.26213,-0.58927 -0.004,-9.3e-4 -0.0101,-0.002 -0.0177,-0.002 z" />
        <path
           style="display:none;fill:#222831;fill-opacity:1;stroke-width:0.0362708"
           d="m 137.01035,162.1062 c 0.002,0.17094 0.0813,0.307 0.20361,0.43869 0.0764,0.0722 0.12547,0.10191 0.20152,0.11317 v 0.004 c 0.006,-5.7e-4 0.0135,-6.5e-4 0.02,-0.002 0.007,5.7e-4 0.013,9.3e-4 0.02,0.002 v -0.004 c 0.076,-0.0113 0.12512,-0.041 0.20151,-0.11317 0.12226,-0.13169 0.20147,-0.26775 0.2036,-0.43869 -0.16921,-0.0974 -0.70061,-0.13098 -0.85019,0 z"
           id="path3983-0-5-96-9-9-0-0-7-9" />
        <path
           id="path2391-9-5-8-66-3-9-7"
           style="display:none;fill:#222831;fill-opacity:1;stroke:none;stroke-width:0.0729574;stroke-opacity:1"
           d="m 134.38886,159.54547 c -0.41632,-6.3e-4 -0.85209,0.19503 -1.13698,0.42154 -0.40825,0.33698 -0.58382,0.8235 -0.42302,1.28144 0.10065,0.25711 0.31007,0.41922 0.57559,0.50246 0.31081,0.0577 0.6275,0.007 0.91559,-0.1084 0.40429,-0.15912 0.82693,-0.45787 0.98294,-0.84543 0.0783,-0.23821 0.0957,-0.50508 0.004,-0.71191 -0.10088,-0.22641 -0.32483,-0.38576 -0.54561,-0.47899 -0.1189,-0.0418 -0.2446,-0.0605 -0.37205,-0.0607 z m 6.09348,0 c -0.12745,2.3e-4 -0.25314,0.0189 -0.37205,0.0607 -0.22078,0.0932 -0.44489,0.25258 -0.54575,0.479 -0.0921,0.20682 -0.0745,0.47371 0.004,0.7119 0.15601,0.38758 0.5785,0.68632 0.98278,0.84544 0.2881,0.11562 0.60492,0.16608 0.91574,0.1084 0.26553,-0.0832 0.47494,-0.24535 0.57558,-0.50246 0.16082,-0.45795 -0.0148,-0.94447 -0.423,-1.28145 -0.2849,-0.2265 -0.72067,-0.42225 -1.13699,-0.42153 z" />
        <path
           id="path3636-33-4-9-2-1-7"
           style="display:none;fill:#ffffff;fill-opacity:1;stroke-width:0.0696575"
           d="m 140.42905,159.80413 c -0.0377,9.4e-4 -0.076,0.008 -0.11792,0.0209 v -3.5e-4 c -0.10291,0.0329 -0.17594,0.11187 -0.20283,0.18328 -0.0388,0.16327 0.11939,0.21216 0.23479,0.1911 0.0796,-0.0175 0.16843,-0.0498 0.2355,-0.11189 0.0476,-0.0442 0.092,-0.11036 0.0795,-0.16765 -0.0128,-0.0488 -0.0569,-0.0843 -0.11651,-0.10158 -0.0383,-0.0107 -0.0749,-0.0152 -0.11259,-0.0139 z m -6.45425,0.0987 c -0.0398,6.6e-4 -0.0805,0.008 -0.12503,0.0209 -0.10295,0.0329 -0.17593,0.11152 -0.20282,0.18293 -0.0388,0.16328 0.1194,0.21217 0.23479,0.19109 0.0796,-0.0175 0.16842,-0.0493 0.23549,-0.11153 0.0477,-0.0442 0.0921,-0.11071 0.0796,-0.16801 -0.0129,-0.0488 -0.0564,-0.0843 -0.11614,-0.10157 -0.0359,-0.01 -0.0706,-0.0144 -0.10585,-0.0139 z" />
        <g
           id="g4433-14-8-5-5-3-2"
           transform="matrix(0.6873443,0,0,0.6873443,72.865441,10.943271)"
           style="display:inline">
          <path
             id="path4348-9-9-1-2-4-2"
             style="display:inline;fill:#0092ca;fill-opacity:1;stroke-width:0.0527695"
             d="m 94.009482,221.49914 v 5.2e-4 c -0.01847,-7.3e-4 -0.04325,0.001 -0.0708,0.004 -0.02655,-0.002 -0.05133,-0.004 -0.06925,-0.004 -0.0111,1.5e-4 -0.01969,0.001 -0.02584,0.003 -0.04985,0.25872 -0.280118,0.63967 -0.381372,0.85731 -0.34253,0.57818 -0.753216,0.96772 -1.933732,1.06506 -0.29699,0.0104 -0.646216,0.0283 -1.008724,-0.21188 -0.47988,-0.29599 -0.617014,-0.88411 -0.619084,-1.34669 l -0.0062,-0.32039 c -0.0898,-0.088 -0.600015,0.072 -0.587045,0.11886 -0.0311,0.65357 0.105716,1.44893 0.663526,1.92184 0.409915,0.37314 0.911025,0.52398 1.366325,0.52917 0.526998,-0.0192 1.346142,-0.0662 1.985408,-0.62425 0.304571,-0.24693 0.498646,-0.54861 0.6165,-0.74673 0.11784,0.19811 0.312327,0.49971 0.617017,0.74673 0.639267,0.55805 1.45841,0.60505 1.985408,0.62425 0.4553,-0.005 0.956409,-0.15603 1.366325,-0.52917 0.55781,-0.47291 0.694625,-1.26827 0.663525,-1.92184 0.01297,-0.0469 -0.497244,-0.20686 -0.587044,-0.11886 l -0.0062,0.32039 c -0.0021,0.46258 -0.139205,1.0507 -0.619084,1.34669 -0.362509,0.24018 -0.711735,0.22228 -1.008724,0.21188 -1.180517,-0.0973 -1.591202,-0.48688 -1.933732,-1.06506 -0.101254,-0.21764 -0.331522,-0.59859 -0.381372,-0.85731 -0.0061,-0.002 -0.01474,-0.003 -0.02584,-0.003 z" />
          <path
             style="display:inline;fill:#0092ca;fill-opacity:1;stroke-width:0.0527695"
             d="m 93.320952,219.92318 c 0.003,0.2487 0.11835,0.44664 0.29622,0.63824 0.11114,0.10507 0.18254,0.14826 0.29318,0.16464 v 0.006 c 0.01,-8.3e-4 0.0197,-9.3e-4 0.0291,-0.003 0.009,8.2e-4 0.019,0.002 0.0291,0.003 v -0.006 c 0.11064,-0.0164 0.18204,-0.0596 0.29318,-0.16464 0.17787,-0.1916 0.29311,-0.38954 0.29622,-0.63824 -0.24619,-0.14175 -1.0193,-0.19055 -1.23693,0 z"
             id="path3983-0-5-96-1-1-3-2-9" />
          <g
             id="g1434-0-6-4-6-6-9-7"
             style="display:inline;fill:#222831;fill-opacity:1;stroke:none;stroke-opacity:1"
             transform="translate(-37.669893,169.26958)">
            <path
               style="font-size:44.8028px;display:inline;fill:#0092ca;fill-opacity:1;stroke:none;stroke-width:0.550178;stroke-linecap:round;stroke-linejoin:round;stroke-opacity:1;paint-order:markers stroke fill"
               d="m 137.68315,45.609313 v 6.73e-4 c -0.0303,3.01e-4 -0.0607,0.01009 -0.0884,0.02932 l -1.24788,0.879165 -1.32916,0.958506 c -0.1115,0.08381 -0.45089,0.335554 -0.6919,0.52543 -0.1103,0.101929 -0.25135,0.231916 -0.32384,0.430483 0.0423,0.117778 0.10898,0.346455 0.32384,0.49875 0.24101,0.189876 0.58041,0.44165 0.6919,0.52543 l 1.32916,0.957849 1.24788,0.879837 c 0.0371,0.02581 0.0788,0.03447 0.11836,0.02668 0.005,-0.0012 0.01,-0.0024 0.0149,-0.004 l -7.9e-4,-7.91e-4 c 0.034,-0.01009 0.0655,-0.03349 0.0898,-0.06833 l 0.30628,-0.490965 c 0.0552,-0.07953 0.0351,-0.179502 -0.0423,-0.240596 l -1.22055,-0.918841 -1.47092,-1.076854 c -0.0345,-0.02003 -0.0624,-0.03764 -0.0852,-0.05461 0.0227,-0.0171 0.0506,-0.03511 0.0852,-0.05525 l 1.47092,-1.076855 1.22055,-0.919497 c 0.0774,-0.06116 0.0975,-0.160352 0.0423,-0.239943 l -0.30628,-0.490962 c -0.0241,-0.03486 -0.0557,-0.05801 -0.0898,-0.06833 l 7.9e-4,-6.73e-4 c -0.005,-0.0013 -0.01,-0.0025 -0.0149,-0.0038 -0.01,-0.0025 -0.0198,-0.0025 -0.0299,-0.0025 z"
               id="path1371-8-3-9-5-9-7-0-0" />
            <path
               style="font-size:44.8028px;display:inline;fill:#0092ca;fill-opacity:1;stroke:none;stroke-width:0.550178;stroke-linecap:round;stroke-linejoin:round;stroke-opacity:1;paint-order:markers stroke fill"
               d="m 125.53557,45.608777 c -0.01,-8.8e-5 -0.0201,5.95e-4 -0.03,0.0025 -0.005,0.0012 -0.01,0.0025 -0.0149,0.0038 l 7.8e-4,6.73e-4 c -0.0339,0.01009 -0.0655,0.03346 -0.0898,0.06833 l -0.30626,0.490962 c -0.0552,0.07953 -0.0351,0.178851 0.0423,0.239943 l 1.22057,0.919496 1.47093,1.076855 c 0.0346,0.02014 0.0624,0.03827 0.0852,0.05525 -0.0227,0.01698 -0.0507,0.03459 -0.0852,0.05461 l -1.47093,1.076854 -1.22057,0.918841 c -0.0774,0.06116 -0.0973,0.161007 -0.0423,0.240597 l 0.30626,0.490964 c 0.0242,0.03487 0.0558,0.05788 0.0898,0.06833 l -7.8e-4,7.92e-4 c 0.005,0.0012 0.01,0.0024 0.0149,0.004 0.0395,0.0076 0.0814,-7.9e-4 0.11847,-0.02667 l 1.24787,-0.879836 1.32916,-0.957849 c 0.11151,-0.08381 0.45089,-0.335554 0.69189,-0.52543 0.21484,-0.152299 0.28154,-0.381042 0.32384,-0.49875 -0.0725,-0.198567 -0.21343,-0.328608 -0.32384,-0.430484 -0.241,-0.189877 -0.58041,-0.441646 -0.69189,-0.52543 l -1.32916,-0.958503 -1.24787,-0.879167 c -0.0277,-0.01925 -0.0583,-0.02895 -0.0884,-0.02932 z"
               id="path1296-6-5-9-8-0-5-5-3-0" />
          </g>
          <path
             style="display:none;fill:#222831;fill-opacity:1;stroke:none;stroke-width:3.52575;stroke-linecap:butt;stroke-linejoin:round;stroke-dasharray:none;stroke-opacity:1;paint-order:stroke markers fill"
             d="m 85.092063,224.86104 c -0.0255,0 -0.0516,0.001 -0.0553,0.003 -0.0212,0.008 -0.0376,0.024 -0.0563,0.0362 -0.12808,0.0832 -0.19146,0.20209 -0.2744,0.3173 -0.0118,0.0155 -0.0165,0.0342 -0.0295,0.0486 -0.0362,0.0394 -0.0962,0.0789 -0.14159,0.10956 -0.0594,0.0399 -0.0574,0.0296 -0.0997,0.0858 -0.0118,0.0154 -0.014,0.0367 -0.03,0.0486 -0.0619,0.0457 -0.17906,0.026 -0.22272,0.0977 -0.0199,0.0327 -0.003,0.0795 -0.0191,0.10956 -0.0146,0.0268 -0.0384,0.049 -0.0579,0.0734 l 0.01,-0.0816 c 0.012,0.0325 0.0163,0.11176 0.0258,0.1788 0.0914,0.52195 0.29179,1.00092 0.94517,0.97565 0.68026,-0.0265 0.79662,-0.8856 0.82475,-1.24334 -0.009,-0.0871 -0.0662,-0.13412 -0.0987,-0.20722 -0.004,-0.0112 0.005,-0.0253 0.002,-0.0367 -0.0154,-0.039 -0.12661,-0.087 -0.1447,-0.0977 -0.0759,-0.0163 -0.0999,-0.0867 -0.15709,-0.12195 -0.0152,-0.009 -0.0379,-0.005 -0.0543,-0.0119 -0.003,-0.002 0.003,-0.009 5.1e-4,-0.0124 -0.004,-0.004 -0.0979,-0.055 -0.10542,-0.061 -0.0778,-0.0604 0.0325,0.0178 -0.0517,-0.061 -0.0136,-0.0128 -0.0411,-0.0103 -0.0532,-0.0243 -0.012,-0.0142 -0.0121,-0.0352 -0.0248,-0.0491 -0.0139,-0.0154 -0.0373,-0.0223 -0.0527,-0.0367 -0.0111,-0.0104 -0.0117,-0.0286 -0.0253,-0.0362 -0.003,-0.002 -0.0282,-0.003 -0.0537,-0.003 z"
             id="path12163-3-8-5"
             transform="matrix(1.454875,0,0,1.454875,-29.795414,-104.59927)" />
        </g>
      </g>
    </g>
  </g>
</svg>
